<svg id="Group_429" data-name="Group 429" xmlns="http://www.w3.org/2000/svg" xmlns:xlink="http://www.w3.org/1999/xlink" width="280.268" height="168.122" viewBox="0 0 280.268 168.122">
  <defs>
    <clipPath id="clip-path">
      <rect id="Rectangle_169" data-name="Rectangle 169" width="280.268" height="168.122" fill="#fff"/>
    </clipPath>
  </defs>
  <path id="Path_607" data-name="Path 607" d="M706.106,168.771l5.177-28.2-12.483,28.2Zm24.482-43.3-7.949,43.3h4.705l-2.073,11.294h-4.705l-2.141,11.663H701.892l2.141-11.663H684.389l2.073-11.294,22.232-43.3Z" transform="translate(-494.613 -90.68)" fill="#fff"/>
  <g id="Group_430" data-name="Group 430">
    <g id="Group_429-2" data-name="Group 429" clip-path="url(#clip-path)">
      <path id="Path_608" data-name="Path 608" d="M875.38,139.025q.969-5.277.7-6.608t-2.151-1.329a2.914,2.914,0,0,0-2.694,1.411q-.853,1.413-1.791,6.527l-5.937,32.33q-1.059,5.772-.723,6.957t2.175,1.187a2.871,2.871,0,0,0,2.671-1.392,23.01,23.01,0,0,0,1.723-6.261Zm15.51,5.566-4.057,22.1A57.429,57.429,0,0,1,884,177.658a19.317,19.317,0,0,1-4.577,6.424,18.688,18.688,0,0,1-7.008,4.3,26.076,26.076,0,0,1-8.385,1.311,28.015,28.015,0,0,1-9.612-1.372,10.487,10.487,0,0,1-5.476-4.277,14.946,14.946,0,0,1-2.19-6.118q-.392-3.212.891-10.209l4.244-23.123q1.677-9.124,4.085-13.668a17.557,17.557,0,0,1,7.6-7.284,25,25,0,0,1,11.859-2.742,21.446,21.446,0,0,1,9.39,1.9,12.531,12.531,0,0,1,5.573,4.645,12.848,12.848,0,0,1,1.751,6.18,57.14,57.14,0,0,1-1.258,10.967" transform="translate(-611.889 -87.373)" fill="#fff"/>
      <path id="Path_609" data-name="Path 609" d="M606.034,168.122,636.411,0h-4.421L601.614,168.122Z" transform="translate(-434.791)" fill="#fff"/>
      <path id="Path_610" data-name="Path 610" d="M155.41,137.183h-7.979l.98-5.334a9.421,9.421,0,0,0,.276-2.9q-.149-.577-1.021-.578a1.446,1.446,0,0,0-1.379.7,11.726,11.726,0,0,0-.823,3.031l-2.615,14.251a9.86,9.86,0,0,0-.271,2.918q.138.682,1.068.682a1.382,1.382,0,0,0,1.291-.682,12.308,12.308,0,0,0,.865-3.21l.707-3.858h7.979l-.22,1.2a26.181,26.181,0,0,1-1.914,6.755,8.981,8.981,0,0,1-3.616,3.492,11.618,11.618,0,0,1-5.95,1.5,10.447,10.447,0,0,1-5.546-1.27,4.813,4.813,0,0,1-2.368-3.515,22.775,22.775,0,0,1,.5-6.757l1.646-8.963a43.149,43.149,0,0,1,1.141-4.974,8.67,8.67,0,0,1,1.94-3.193,9.787,9.787,0,0,1,3.571-2.417,12.482,12.482,0,0,1,4.758-.881A9.933,9.933,0,0,1,154,124.54a5.079,5.079,0,0,1,2.39,3.4,20.112,20.112,0,0,1-.443,6.33Z" transform="translate(-97.407 -89.022)" fill="#fff"/>
      <path id="Path_611" data-name="Path 611" d="M218.836,125.5l-5.634,30.68h-7.979l5.634-30.68Z" transform="translate(-148.316 -90.699)" fill="#fff"/>
      <path id="Path_612" data-name="Path 612" d="M255.394,130.749l-1.251,6.822a3.9,3.9,0,0,0,1.952-.37q.606-.369.98-2.4l.31-1.686c.179-.972.121-1.611-.169-1.914a2.607,2.607,0,0,0-1.822-.454m-7.013-5.25h5.646a41.733,41.733,0,0,1,7.567.435,4.116,4.116,0,0,1,2.85,2.228q.93,1.789.212,5.713-.659,3.581-1.774,4.813a5.65,5.65,0,0,1-3.778,1.479A4.807,4.807,0,0,1,262,141.739a3.825,3.825,0,0,1,.682,1.81,29.166,29.166,0,0,1-.634,4.54l-1.485,8.091h-7.41l1.871-10.195a6.841,6.841,0,0,0,.173-3.05q-.283-.588-1.931-.588l-2.54,13.833h-7.978Z" transform="translate(-175.435 -90.699)" fill="#fff"/>
      <path id="Path_613" data-name="Path 613" d="M340.208,137.183H332.23l.98-5.334a9.433,9.433,0,0,0,.276-2.9q-.149-.577-1.021-.578a1.446,1.446,0,0,0-1.379.7,11.741,11.741,0,0,0-.822,3.031l-2.615,14.251a9.859,9.859,0,0,0-.271,2.918q.138.682,1.068.682a1.381,1.381,0,0,0,1.291-.682,12.285,12.285,0,0,0,.865-3.21l.707-3.858h7.979l-.22,1.2a26.18,26.18,0,0,1-1.914,6.755,8.979,8.979,0,0,1-3.617,3.492,11.617,11.617,0,0,1-5.95,1.5,10.449,10.449,0,0,1-5.546-1.27,4.813,4.813,0,0,1-2.368-3.515,22.786,22.786,0,0,1,.5-6.757l1.647-8.963a43.081,43.081,0,0,1,1.141-4.974,8.67,8.67,0,0,1,1.94-3.193,9.784,9.784,0,0,1,3.571-2.417,12.481,12.481,0,0,1,4.757-.881,9.934,9.934,0,0,1,5.568,1.362,5.079,5.079,0,0,1,2.39,3.4,20.12,20.12,0,0,1-.443,6.33Z" transform="translate(-230.962 -89.022)" fill="#fff"/>
      <path id="Path_614" data-name="Path 614" d="M416.7,125.5,412.931,146a38.655,38.655,0,0,1-1.127,4.9,8.336,8.336,0,0,1-1.877,2.9,9.028,9.028,0,0,1-3.362,2.256,12.181,12.181,0,0,1-4.451.768,10.975,10.975,0,0,1-4.683-.91,5.367,5.367,0,0,1-3.377-5.449q.107-1.62,1.061-6.811l3.333-18.156h7.978L402.2,148.505a9.114,9.114,0,0,0-.253,2.568.688.688,0,0,0,.778.557,1.139,1.139,0,0,0,1.089-.614,12.579,12.579,0,0,0,.752-2.91l4.152-22.607Z" transform="translate(-284.775 -90.699)" fill="#fff"/>
      <path id="Path_615" data-name="Path 615" d="M477.381,125.5l-4.507,24.54h4.85l-1.127,6.14H463.768L469.4,125.5Z" transform="translate(-335.169 -90.699)" fill="#fff"/>
      <path id="Path_616" data-name="Path 616" d="M524.551,145.227q.352-5.215,1.15-12.887-2.836,8.812-3.9,12.887ZM532.4,125.5l-1.072,30.68h-8.153l.586-5.513h-2.855l-1.493,5.513h-8.247l9.7-30.68Z" transform="translate(-369.425 -90.699)" fill="#fff"/>
      <path id="Path_617" data-name="Path 617" d="M598.617,130.749l-1.253,6.822a3.894,3.894,0,0,0,1.952-.37q.609-.369.981-2.4l.31-1.686c.177-.972.122-1.611-.171-1.914a2.6,2.6,0,0,0-1.819-.454M591.6,125.5h5.649a41.7,41.7,0,0,1,7.565.435,4.117,4.117,0,0,1,2.852,2.228q.929,1.789.21,5.713-.657,3.581-1.776,4.813a5.644,5.644,0,0,1-3.776,1.479,4.812,4.812,0,0,1,2.9,1.572,3.844,3.844,0,0,1,.68,1.81,28.947,28.947,0,0,1-.633,4.54l-1.487,8.091h-7.41l1.873-10.195a6.81,6.81,0,0,0,.172-3.05q-.279-.588-1.928-.588l-2.54,13.833h-7.979Z" transform="translate(-423.484 -90.699)" fill="#fff"/>
      <path id="Path_618" data-name="Path 618" d="M12.648,259.136,8.942,279.319a2.763,2.763,0,0,0,2.249-.692,11.321,11.321,0,0,0,1.089-3.762l2.188-11.921a16.231,16.231,0,0,0,.358-2.672,1.009,1.009,0,0,0-.448-.861,3.579,3.579,0,0,0-1.729-.276m-7.016-5.25H11.6a35.533,35.533,0,0,1,7.718.532,4.737,4.737,0,0,1,2.78,1.742,4.614,4.614,0,0,1,.831,2.7,41.717,41.717,0,0,1-.809,5.846l-1.972,10.745a27.237,27.237,0,0,1-1.4,5.525,5.358,5.358,0,0,1-1.754,2.18,6.908,6.908,0,0,1-2.59,1.1,22.572,22.572,0,0,1-4.341.312H0Z" transform="translate(0 -183.485)" fill="#fff"/>
      <path id="Path_619" data-name="Path 619" d="M80.192,253.886H93.5l-1.127,6.14H87.043l-1.068,5.818h4.983l-1.071,5.838H84.9l-1.239,6.745h5.857l-1.127,6.14H74.559Z" transform="translate(-53.885 -183.485)" fill="#fff"/>
      <path id="Path_620" data-name="Path 620" d="M160.171,253.886l-5.633,30.68h-6.972l3.792-20.712-6.579,20.712h-4.945l.786-20.238L136.9,284.566h-6.972l5.632-30.68h10.322q-.047,2.768-.25,6.522l-.3,7.8,4.463-14.326Z" transform="translate(-93.896 -183.485)" fill="#fff"/>
      <path id="Path_621" data-name="Path 621" d="M244.751,260.094a9.514,9.514,0,0,0,.265-2.739c-.086-.4-.374-.6-.867-.6a1.333,1.333,0,0,0-1.045.484,7.71,7.71,0,0,0-.854,2.853l-2.631,14.326a14.241,14.241,0,0,0-.388,3.3c.07.416.368.624.9.624a1.223,1.223,0,0,0,1.174-.719,16.567,16.567,0,0,0,.858-3.43Zm6.125,10.081q-.849,4.625-1.42,6.549a9.035,9.035,0,0,1-2.009,3.515,9.533,9.533,0,0,1-3.547,2.443,12.451,12.451,0,0,1-4.7.854,10.471,10.471,0,0,1-4.278-.806,5.6,5.6,0,0,1-2.711-2.417,6.234,6.234,0,0,1-.779-3.505q.124-1.895.992-6.633l.963-5.249q.849-4.625,1.42-6.547a9.021,9.021,0,0,1,2.01-3.515,9.484,9.484,0,0,1,3.547-2.444,12.417,12.417,0,0,1,4.705-.853,10.47,10.47,0,0,1,4.277.806,5.6,5.6,0,0,1,2.711,2.415,6.241,6.241,0,0,1,.778,3.506,66.787,66.787,0,0,1-.991,6.632Z" transform="translate(-167.245 -181.809)" fill="#fff"/>
      <path id="Path_622" data-name="Path 622" d="M314.731,253.886l-4.5,24.54h4.85l-1.127,6.14H301.121l5.632-30.68Z" transform="translate(-217.622 -183.485)" fill="#fff"/>
      <path id="Path_623" data-name="Path 623" d="M365.167,253.886l-5.632,30.68h-7.978l5.632-30.68Z" transform="translate(-254.072 -183.485)" fill="#fff"/>
      <path id="Path_624" data-name="Path 624" d="M418.964,253.886l-1.127,6.14H413.1l-4.506,24.54h-7.979l4.506-24.54H400.4l1.128-6.14Z" transform="translate(-289.374 -183.485)" fill="#fff"/>
      <path id="Path_625" data-name="Path 625" d="M464.4,253.886l-5.633,30.68h-7.979l5.633-30.68Z" transform="translate(-325.787 -183.485)" fill="#fff"/>
      <path id="Path_626" data-name="Path 626" d="M505.622,260.094a9.448,9.448,0,0,0,.266-2.739c-.084-.4-.375-.6-.866-.6a1.326,1.326,0,0,0-1.045.484,7.691,7.691,0,0,0-.857,2.853l-2.63,14.326a14.187,14.187,0,0,0-.387,3.3c.068.416.368.624.9.624a1.223,1.223,0,0,0,1.176-.719,16.612,16.612,0,0,0,.856-3.43Zm6.128,10.081q-.849,4.625-1.42,6.549a9.057,9.057,0,0,1-2.01,3.515,9.522,9.522,0,0,1-3.547,2.443,12.452,12.452,0,0,1-4.705.854,10.469,10.469,0,0,1-4.277-.806,5.6,5.6,0,0,1-2.712-2.417,6.241,6.241,0,0,1-.777-3.505,66.681,66.681,0,0,1,.99-6.633l.964-5.249q.849-4.625,1.419-6.547a9.09,9.09,0,0,1,2.01-3.515,9.507,9.507,0,0,1,3.549-2.444,12.406,12.406,0,0,1,4.7-.853,10.459,10.459,0,0,1,4.277.806,5.606,5.606,0,0,1,2.712,2.415,6.219,6.219,0,0,1,.776,3.506,65.806,65.806,0,0,1-.989,6.632Z" transform="translate(-355.78 -181.809)" fill="#fff"/>
      <path id="Path_627" data-name="Path 627" d="M585.432,253.886l-5.633,30.68h-6.991l-1.589-13.947-2.562,13.947h-6.67l5.632-30.68h6.671l1.937,13.816,2.535-13.816Z" transform="translate(-406.152 -183.485)" fill="#fff"/>
      <path id="Path_628" data-name="Path 628" d="M170.278,382.273h13.3l-1.127,6.14h-5.325l-1.067,5.818h4.984l-1.072,5.838H174.99l-1.239,6.745h5.856l-1.128,6.141H164.646Z" transform="translate(-118.991 -276.271)" fill="#fff"/>
      <path id="Path_629" data-name="Path 629" d="M237.688,382.273l-5.293,13.569,1.083,17.112h-7.391a94.8,94.8,0,0,1-.373-11.18q-.836,2.919-1.975,6.177l-1.669,5H214.3l6.042-17.112-.409-13.569h7.712q-.022,1.269.055,4.225.087,2.254.056,4.151L231,382.273Z" transform="translate(-154.876 -276.272)" fill="#fff"/>
      <path id="Path_630" data-name="Path 630" d="M297.376,387.523l-1.433,7.808c.225.012.418.018.583.018a2.176,2.176,0,0,0,1.625-.539,4.6,4.6,0,0,0,.839-2.245l.462-2.521q.29-1.573-.116-2.046t-1.959-.474m-7.016-5.25H298.4a17.765,17.765,0,0,1,4.917.513,4.411,4.411,0,0,1,2.362,1.478,4.169,4.169,0,0,1,.765,2.339,21.069,21.069,0,0,1-.467,4.255l-.491,2.671a12.6,12.6,0,0,1-1.393,4.283,5.393,5.393,0,0,1-2.606,2.066,11.536,11.536,0,0,1-4.367.72h-2.141l-2.269,12.356h-7.979Z" transform="translate(-205.775 -276.272)" fill="#fff"/>
      <path id="Path_631" data-name="Path 631" d="M357.813,382.273h13.3l-1.127,6.14h-5.325l-1.069,5.818h4.984l-1.071,5.838h-4.983l-1.239,6.745h5.856l-1.127,6.141H352.18Z" transform="translate(-254.523 -276.271)" fill="#fff"/>
      <path id="Path_632" data-name="Path 632" d="M420.187,387.523l-1.253,6.822a3.893,3.893,0,0,0,1.952-.37q.61-.368.982-2.4l.309-1.686q.267-1.459-.171-1.914a2.6,2.6,0,0,0-1.82-.455m-7.016-5.25h5.649a41.7,41.7,0,0,1,7.565.435,4.118,4.118,0,0,1,2.852,2.228q.929,1.789.21,5.713-.657,3.582-1.776,4.813a5.639,5.639,0,0,1-3.776,1.478,4.807,4.807,0,0,1,2.9,1.574,3.835,3.835,0,0,1,.681,1.81,29.018,29.018,0,0,1-.634,4.538l-1.485,8.092h-7.41l1.871-10.2a6.8,6.8,0,0,0,.172-3.051q-.28-.588-1.928-.588l-2.54,13.834h-7.979Z" transform="translate(-294.532 -276.272)" fill="#fff"/>
      <path id="Path_633" data-name="Path 633" d="M510,382.273l-1.127,6.14h-4.737l-4.506,24.541h-7.979l4.506-24.541h-4.72l1.127-6.14Z" transform="translate(-355.169 -276.271)" fill="#fff"/>
      <path id="Path_634" data-name="Path 634" d="M564.82,389.882h-7.41l.418-2.273a4.308,4.308,0,0,0,.087-2.029.858.858,0,0,0-.866-.436,1.479,1.479,0,0,0-1.2.589,3.985,3.985,0,0,0-.7,1.782,4.776,4.776,0,0,0-.007,2.313,4.591,4.591,0,0,0,1.909,1.877q4.746,3.161,5.758,5.189T563,403.43a13.093,13.093,0,0,1-1.655,4.834,7.829,7.829,0,0,1-3.444,2.605,13.045,13.045,0,0,1-5.309,1.052,10.148,10.148,0,0,1-5.245-1.214,4.6,4.6,0,0,1-2.4-3.087,15.45,15.45,0,0,1,.276-5.326l.37-2.009H553l-.687,3.732a4.752,4.752,0,0,0-.095,2.219c.149.329.489.491,1.018.491a1.59,1.59,0,0,0,1.3-.624,4.151,4.151,0,0,0,.729-1.858q.5-2.709-.088-3.543a17.972,17.972,0,0,0-3.222-2.785,28.156,28.156,0,0,1-3.416-2.862,5.316,5.316,0,0,1-1.149-2.463,10.412,10.412,0,0,1,.1-4.018,12.807,12.807,0,0,1,1.846-5.155,7.86,7.86,0,0,1,3.377-2.547,12.834,12.834,0,0,1,5.02-.92,11.391,11.391,0,0,1,5.112,1,4.274,4.274,0,0,1,2.435,2.531,12.99,12.99,0,0,1-.241,5.182Z" transform="translate(-393.742 -274.594)" fill="#fff"/>
      <path id="Path_635" data-name="Path 635" d="M739.839,386.783h1.93l1.025,13.872h.06l5.792-13.872h1.93l-7.85,17.309c-1.464,3.138-2.529,4.011-5,4.011-.483,0-.846-.03-1.177-.061l.265-1.507c.393.03.755.06,1.148.06,1.115,0,1.95-.453,2.784-2.141l.717-1.507Z" transform="translate(-532.308 -279.531)" fill="#fff"/>
      <path id="Path_636" data-name="Path 636" d="M794.57,392.42c.658-3.981-.221-5.429-2.424-5.429-2.262,0-3.615,1.448-4.393,5.429Zm1,4.131c-.883,3.407-3.213,5.669-6.2,5.669-3.378,0-4.973-2.353-3.82-8.382,1.043-5.58,3.511-8.353,7.04-8.353,3.59,0,4.733,2.382,3.745,7.78l-.136.663h-8.747l-.132.753c-.854,4.614.507,6.031,2.286,6.031,1.93,0,3.346-1.357,4.152-4.161Z" transform="translate(-567.457 -278.592)" fill="#fff"/>
      <path id="Path_637" data-name="Path 637" d="M838.349,392.811h-.06c-.317.573-1.367.844-2.115,1.056l-1.59.39c-1.918.483-3.014,1.388-3.359,3.318-.347,1.9.377,3.135,1.945,3.135,2.2,0,4.033-1.628,4.568-4.523Zm-7.261-2.2c.616-3.286,2.472-5.125,5.881-5.125,3.288,0,4.264,1.718,3.751,4.252l-1.734,9.468c-.16.875.062,1.327.7,1.327h.513l-.241,1.327a2.921,2.921,0,0,1-.9.182c-1.418,0-2.24-.333-1.949-1.991l.109-.543h-.06a4.864,4.864,0,0,1-4.641,2.714c-2.8,0-3.751-1.749-3.245-4.523a5.3,5.3,0,0,1,4.057-4.433l3.566-.965c1.35-.332,1.674-.694,2.021-2.533.374-2.051-.64-2.775-2.268-2.775-2.173,0-3.318,1.3-3.744,3.618Z" transform="translate(-599.223 -278.592)" fill="#fff"/>
      <path id="Path_638" data-name="Path 638" d="M879.233,385.844h1.811l-.453,2.5h.06a5.176,5.176,0,0,1,4.547-2.864,2.32,2.32,0,0,1,.635.091l-.348,1.808a4.057,4.057,0,0,0-.848-.091c-2.02,0-4.127,1.448-4.687,4.554l-1.841,10.012H876.3Z" transform="translate(-633.307 -278.592)" fill="#fff"/>
      <path id="Path_639" data-name="Path 639" d="M910.114,393.9c-2.1-.875-2.648-2.2-2.354-3.8a5.224,5.224,0,0,1,5.592-4.612c3.015,0,4.138,1.537,3.6,4.464l-.079.451h-1.811l.079-.451c.4-2.082-.4-2.956-2.092-2.956a3.1,3.1,0,0,0-3.433,2.714c-.185,1.115.017,1.99,1.692,2.684l2.438,1a3.31,3.31,0,0,1,2.239,4.07,5.525,5.525,0,0,1-5.829,4.765c-3.288,0-4.676-1.357-4.01-4.975l.109-.513h1.81l-.081.422c-.426,2.382.388,3.557,2.408,3.557a3.474,3.474,0,0,0,3.7-2.864,2.324,2.324,0,0,0-1.61-2.956Z" transform="translate(-654.765 -278.592)" fill="#fff"/>
      <path id="Path_640" data-name="Path 640" d="M806.011,57.919l.641,4.6h4.834l-4.438,2.842.642,4.6-3.384-2.842-4.437,2.842,2.346-4.6-3.384-2.842h4.834Z" transform="translate(-577.321 -41.859)" fill="#dfb100"/>
      <path id="Path_641" data-name="Path 641" d="M857.423,57.919l.641,4.6H862.9l-4.438,2.842.642,4.6-3.384-2.842-4.437,2.842,2.346-4.6-3.384-2.842h4.834Z" transform="translate(-614.477 -41.859)" fill="#dfb100"/>
      <path id="Path_642" data-name="Path 642" d="M908.836,57.919l.642,4.6h4.834l-4.438,2.842.642,4.6-3.385-2.842-4.437,2.842,2.346-4.6-3.384-2.842h4.834Z" transform="translate(-651.634 -41.859)" fill="#dfb100"/>
      <path id="Path_643" data-name="Path 643" d="M960.248,57.919l.642,4.6h4.834l-4.438,2.842.642,4.6-3.384-2.842-4.437,2.842,2.346-4.6-3.384-2.842H957.9Z" transform="translate(-688.79 -41.859)" fill="#dfb100"/>
    </g>
  </g>
</svg>
