<svg id="Group_46" data-name="Group 46" xmlns="http://www.w3.org/2000/svg" xmlns:xlink="http://www.w3.org/1999/xlink" width="185.773" height="54.376" viewBox="0 0 185.773 54.376">
  <defs>
    <clipPath id="clip-path">
      <rect id="Rectangle_3" data-name="Rectangle 3" width="185.773" height="54.376" fill="none"/>
    </clipPath>
  </defs>
  <path id="Path_19" data-name="Path 19" d="M6.975.714.852,34.969H82.383L88.583.714Z" transform="translate(-0.192 -0.161)" fill="#a0161c"/>
  <g id="Group_10" data-name="Group 10">
    <g id="Group_9" data-name="Group 9" clip-path="url(#clip-path)">
      <path id="Path_20" data-name="Path 20" d="M88.583.714l-6.2,34.255H.852L6.975.714Z" transform="translate(-0.192 -0.161)" fill="none" stroke="#a0161c" stroke-width="1.427"/>
    </g>
  </g>
  <path id="Path_21" data-name="Path 21" d="M113.152.714l-6.2,34.255h96.023l6.2-34.255Z" transform="translate(-24.063 -0.161)" fill="#fff"/>
  <g id="Group_12" data-name="Group 12">
    <g id="Group_11" data-name="Group 11" clip-path="url(#clip-path)">
      <path id="Path_22" data-name="Path 22" d="M209.176.714l-6.123,34.255h-96.1l6.2-34.255Z" transform="translate(-24.063 -0.161)" fill="none" stroke="#a0161c" stroke-width="1.427"/>
      <path id="Path_23" data-name="Path 23" d="M28.145,9.314l-.7,20.925h-5.58l.388-3.72H20.24l-1.008,3.72h-5.58l6.51-20.925ZM22.875,22.8c.155-2.4.388-5.27.775-8.835-1.24,4.03-2.17,6.975-2.635,8.835Z" transform="translate(-3.072 -2.096)" fill="#fff"/>
      <path id="Path_24" data-name="Path 24" d="M60.055,9.314l-6.51,20.925H45.252l.62-20.925h5.735c-.388,5.735-.775,10.618-1.24,14.648,1.008-4.03,1.938-7.6,2.868-10.773L54.32,9.314Z" transform="translate(-10.181 -2.096)" fill="#fff"/>
      <path id="Path_25" data-name="Path 25" d="M75.445,9.314l-.7,20.925h-5.58l.388-3.72H67.54l-1.008,3.72h-5.58l6.51-20.925ZM70.175,22.8c.155-2.4.388-5.27.775-8.835-1.24,4.03-2.17,6.975-2.635,8.835Z" transform="translate(-13.714 -2.096)" fill="#fff"/>
      <path id="Path_26" data-name="Path 26" d="M97.94,9.314,94.22,30.239H89.415L88.33,20.706l-1.705,9.533H82.052l3.8-20.925h4.5l1.4,9.455,1.705-9.455Z" transform="translate(-18.461 -2.096)" fill="#fff"/>
      <path id="Path_27" data-name="Path 27" d="M125.2,9.414l-3.023,16.663h3.333l-.775,4.185h-8.68l3.72-20.848Z" transform="translate(-26.111 -2.118)" fill="#a0161c"/>
      <path id="Path_28" data-name="Path 28" d="M140.2,9.414l-3.72,20.848h-5.425l3.72-20.848Z" transform="translate(-29.486 -2.118)" fill="#a0161c"/>
      <path id="Path_29" data-name="Path 29" d="M146.65,9.414h9.068l-.775,4.108H151.3l-.7,3.953h3.41l-.775,4.03H149.9l-.853,4.573H153l-.775,4.185h-9.378Z" transform="translate(-32.141 -2.118)" fill="#a0161c"/>
      <path id="Path_30" data-name="Path 30" d="M179.612,9.414l-3.8,20.848h-4.728l2.558-14.105-4.418,14.105h-3.41l.543-13.8-2.48,13.8h-4.728l3.72-20.848h7.053c-.077,1.24-.077,2.713-.155,4.418l-.232,5.348,3.023-9.765Z" transform="translate(-35.808 -2.118)" fill="#a0161c"/>
      <path id="Path_31" data-name="Path 31" d="M189.372,9.414h5.5a16.7,16.7,0,0,1,3.333.31,2.814,2.814,0,0,1,1.628,1.008,3.685,3.685,0,0,1,.543,1.628,17.164,17.164,0,0,1-.31,2.868l-.31,1.783a8.754,8.754,0,0,1-.93,2.945,3.622,3.622,0,0,1-1.783,1.4,8.094,8.094,0,0,1-2.945.465h-1.473l-1.55,8.448h-5.425Zm4.805,3.565-.93,5.27h.388a1.533,1.533,0,0,0,1.085-.388,2.706,2.706,0,0,0,.542-1.55l.31-1.705a1.9,1.9,0,0,0-.077-1.4,2.275,2.275,0,0,0-1.318-.233" transform="translate(-41.77 -2.118)" fill="#a0161c"/>
      <path id="Path_32" data-name="Path 32" d="M208.45,9.414h4.03a24.666,24.666,0,0,1,5.27.388,2.989,2.989,0,0,1,1.86,1.163,3.09,3.09,0,0,1,.542,1.86,23.26,23.26,0,0,1-.542,3.953l-1.318,7.285a17.619,17.619,0,0,1-.93,3.8,3.786,3.786,0,0,1-1.163,1.473,4.165,4.165,0,0,1-1.783.775,14.01,14.01,0,0,1-2.945.233h-6.82Zm4.805,3.565L210.775,26.7a1.943,1.943,0,0,0,1.55-.465,7.549,7.549,0,0,0,.7-2.558l1.473-8.06a15.485,15.485,0,0,0,.232-1.783.7.7,0,0,0-.31-.62,1.839,1.839,0,0,0-1.163-.233" transform="translate(-46.045 -2.118)" fill="#a0161c"/>
    </g>
  </g>
</svg>
