<svg xmlns="http://www.w3.org/2000/svg" xmlns:xlink="http://www.w3.org/1999/xlink" width="120.317" height="35.217" viewBox="0 0 120.317 35.217">
  <defs>
    <clipPath id="clip-path">
      <rect id="Rectangle_3" data-name="Rectangle 3" width="120.317" height="35.217" fill="none"/>
    </clipPath>
  </defs>
  <g id="Group_184" data-name="Group 184" transform="translate(-142 -41.312)">
    <path id="Path_19" data-name="Path 19" d="M4.818.714.852,22.9h52.8L57.672.714Z" transform="translate(141.575 40.956)" fill="#a0161c"/>
    <g id="Group_10" data-name="Group 10" transform="translate(142 41.312)">
      <g id="Group_9" data-name="Group 9" clip-path="url(#clip-path)">
        <path id="Path_20" data-name="Path 20" d="M57.671.714,53.656,22.9H.852L4.818.714Z" transform="translate(-0.425 -0.355)" fill="none" stroke="#a0161c" stroke-width="1.427"/>
      </g>
    </g>
    <path id="Path_21" data-name="Path 21" d="M110.968.714,106.952,22.9h62.19L173.158.714Z" transform="translate(88.731 40.957)" fill="#fff"/>
    <g id="Group_12" data-name="Group 12" transform="translate(142 41.312)">
      <g id="Group_11" data-name="Group 11" clip-path="url(#clip-path)">
        <path id="Path_22" data-name="Path 22" d="M173.158.714,169.192,22.9h-62.24L110.968.714Z" transform="translate(-53.269 -0.355)" fill="none" stroke="#a0161c" stroke-width="1.427"/>
        <path id="Path_23" data-name="Path 23" d="M23.038,9.314l-.452,13.552H18.973l.251-2.409H17.918l-.653,2.409H13.652L17.868,9.314Zm-3.413,8.734c.1-1.556.251-3.413.5-5.722-.8,2.61-1.405,4.517-1.707,5.722Z" transform="translate(-6.8 -4.639)" fill="#fff"/>
        <path id="Path_24" data-name="Path 24" d="M54.839,9.314,50.623,22.866H45.252l.4-13.552h3.714c-.251,3.714-.5,6.877-.8,9.487.653-2.61,1.255-4.919,1.857-6.977l.7-2.51Z" transform="translate(-22.538 -4.639)" fill="#fff"/>
        <path id="Path_25" data-name="Path 25" d="M70.338,9.314l-.452,13.552H66.273l.251-2.409H65.218l-.653,2.409H60.952L65.168,9.314Zm-3.413,8.734c.1-1.556.251-3.413.5-5.722-.8,2.61-1.405,4.517-1.707,5.722Z" transform="translate(-30.358 -4.639)" fill="#fff"/>
        <path id="Path_26" data-name="Path 26" d="M92.342,9.314,89.933,22.866H86.821l-.7-6.174-1.1,6.174H82.052L84.512,9.314h2.911l.9,6.124,1.1-6.124Z" transform="translate(-40.867 -4.639)" fill="#fff"/>
        <path id="Path_27" data-name="Path 27" d="M121.975,9.414l-1.958,10.792h2.158l-.5,2.71h-5.622l2.409-13.5Z" transform="translate(-57.801 -4.689)" fill="#a0161c"/>
        <path id="Path_28" data-name="Path 28" d="M136.975,9.414l-2.409,13.5h-3.514l2.409-13.5Z" transform="translate(-65.272 -4.689)" fill="#a0161c"/>
        <path id="Path_29" data-name="Path 29" d="M145.312,9.414h5.873l-.5,2.66h-2.359l-.452,2.56h2.209l-.5,2.61H147.42l-.552,2.961h2.56l-.5,2.71h-6.073Z" transform="translate(-71.15 -4.689)" fill="#a0161c"/>
        <path id="Path_30" data-name="Path 30" d="M172.4,9.414l-2.459,13.5h-3.062l1.656-9.135-2.861,9.135h-2.209l.351-8.934-1.606,8.934h-3.062l2.409-13.5h4.568c-.05.8-.05,1.757-.1,2.861l-.151,3.463,1.958-6.324Z" transform="translate(-79.268 -4.689)" fill="#a0161c"/>
        <path id="Path_31" data-name="Path 31" d="M188.061,9.414h3.564a10.817,10.817,0,0,1,2.158.2,1.822,1.822,0,0,1,1.054.653,2.387,2.387,0,0,1,.351,1.054,11.118,11.118,0,0,1-.2,1.857l-.2,1.154a5.67,5.67,0,0,1-.6,1.907,2.346,2.346,0,0,1-1.154.9,5.242,5.242,0,0,1-1.907.3h-.954l-1,5.471h-3.514Zm3.112,2.309-.6,3.413h.251a.993.993,0,0,0,.7-.251,1.752,1.752,0,0,0,.351-1l.2-1.1a1.23,1.23,0,0,0-.05-.9,1.473,1.473,0,0,0-.853-.151" transform="translate(-92.467 -4.689)" fill="#a0161c"/>
        <path id="Path_32" data-name="Path 32" d="M207.111,9.414h2.61a15.975,15.975,0,0,1,3.413.251,1.936,1.936,0,0,1,1.2.753,2,2,0,0,1,.351,1.2,15.065,15.065,0,0,1-.351,2.56l-.853,4.718a11.411,11.411,0,0,1-.6,2.459,2.452,2.452,0,0,1-.753.954,2.7,2.7,0,0,1-1.154.5,9.073,9.073,0,0,1-1.907.151h-4.417Zm3.112,2.309-1.606,8.884a1.258,1.258,0,0,0,1-.3,4.889,4.889,0,0,0,.452-1.656l.954-5.22a10.03,10.03,0,0,0,.151-1.154.457.457,0,0,0-.2-.4,1.191,1.191,0,0,0-.753-.151" transform="translate(-101.93 -4.689)" fill="#a0161c"/>
        <path id="Path_33" data-name="Path 33" d="M21.877,56.765a3.6,3.6,0,0,1,3.41-3.877,1.933,1.933,0,0,1,1.734,1.033l-1.053.818a.906.906,0,0,0-.76-.506c-.916,0-1.734,1.072-1.734,2.435,0,.916.35,1.442,1.208,1.442a1.6,1.6,0,0,0,.974-.448l.643.994a2.925,2.925,0,0,1-1.949.8A2.4,2.4,0,0,1,21.877,56.765ZM29.173,53h1.559l-1.266,6.332H27.907ZM34.3,57.155h-.651l-.429,2.182H31.657L32.924,53h2.085c1.266,0,2.241.448,2.241,1.676a2.247,2.247,0,0,1-1.525,2.232l.941,2.424H35.028Zm.168-1.228c.838,0,1.247-.409,1.247-1.013,0-.468-.331-.682-.916-.682h-.565l-.331,1.7Zm4.179.838a3.6,3.6,0,0,1,3.41-3.877,1.933,1.933,0,0,1,1.734,1.033l-1.052.818a.907.907,0,0,0-.76-.506c-.916,0-1.734,1.072-1.734,2.435,0,.916.351,1.442,1.208,1.442a1.6,1.6,0,0,0,.974-.448l.643.994a2.927,2.927,0,0,1-1.949.8A2.4,2.4,0,0,1,38.642,56.765ZM45.7,53h1.559l-.682,3.41a4.754,4.754,0,0,0-.078.721c0,.643.195.974.838.974.565,0,.877-.429,1.091-1.52L49.154,53h1.52l-.721,3.546c-.39,1.988-1.208,2.9-2.65,2.9-1.578,0-2.358-.721-2.358-2.28a7.3,7.3,0,0,1,.137-1.072Zm7.141,0H54.4l-1.013,5.027h2.3l-.253,1.306H51.579Zm6.79,0h1.871l.6,6.332H60.473L60.432,57.9h-1.74l-.654,1.442H56.323Zm.762,3.722-.022-.74c-.02-.6-.039-1.17-.039-1.812H60.3c-.253.624-.468,1.208-.74,1.812l-.336.74ZM64.692,53H66.25l-1.266,6.332H63.425Zm5.122,4.151h-.651l-.429,2.182H67.175L68.442,53h2.085c1.266,0,2.241.448,2.241,1.676a2.247,2.247,0,0,1-1.525,2.232l.941,2.424H70.546Zm.168-1.228c.838,0,1.247-.409,1.247-1.013,0-.468-.331-.682-.916-.682h-.565l-.331,1.7Zm6.332,2.309,1.111-.877a1.737,1.737,0,0,0,1.325.77c.448,0,.741-.2.741-.556,0-.283-.283-.409-.721-.682l-.546-.341a1.758,1.758,0,0,1-.935-1.617,2.194,2.194,0,0,1,2.328-2.046,2.607,2.607,0,0,1,1.968.984l-.974.916a1.51,1.51,0,0,0-1.053-.555c-.448,0-.672.243-.672.546,0,.263.273.38.78.7l.584.36a1.537,1.537,0,0,1,.857,1.51,2.222,2.222,0,0,1-2.474,2.1A2.826,2.826,0,0,1,76.313,58.237ZM83.785,53h1.559L84.33,58.032h2.3l-.253,1.306H82.518Zm4.082,3.761c0-2.358,1.6-3.877,3.274-3.877A2.392,2.392,0,0,1,93.6,55.577c0,2.358-1.6,3.877-3.274,3.877A2.392,2.392,0,0,1,87.867,56.765ZM92,55.674c0-.916-.351-1.442-.936-1.442-.721,0-1.6.974-1.6,2.435,0,.916.351,1.442.936,1.442C91.121,58.11,92,57.136,92,55.674ZM96.1,53h2.085c1.257,0,2.241.468,2.241,1.734,0,1.851-1.393,2.533-2.981,2.533H96.8l-.41,2.065H94.832Zm1.529,3.04c.8,0,1.257-.37,1.257-1.072,0-.506-.341-.74-.916-.74H97.4l-.351,1.812ZM102.635,53h3.858l-.253,1.306h-2.318l-.214,1.111h1.968l-.253,1.306h-1.968l-.273,1.305h2.4l-.253,1.306h-3.955Zm5.952,0h1.5l.877,3,.312,1.422h.039a21.834,21.834,0,0,1,.253-2.4l.41-2.026h1.481l-1.266,6.332h-1.5l-.876-3-.293-1.422h-.039a20.689,20.689,0,0,1-.273,2.377l-.409,2.046h-1.481Z" transform="translate(-10.896 -26.342)" fill="#414042"/>
      </g>
    </g>
  </g>
</svg>
