<svg xmlns="http://www.w3.org/2000/svg" width="17" height="19" viewBox="0 0 17 19">
  <g id="Polygon_3" data-name="Polygon 3" transform="translate(17) rotate(90)" fill="none">
    <path d="M7.754,3.124a2,2,0,0,1,3.492,0l6.091,10.9A2,2,0,0,1,15.591,17H3.409a2,2,0,0,1-1.746-2.976Z" stroke="none"/>
    <path d="M 9.499999046325684 4.099854469299316 L 3.408748626708984 14.9999942779541 L 15.59124946594238 14.9999942779541 L 9.500008583068848 4.099864959716797 C 9.500007629394531 4.099861145019531 9.500009536743164 4.099857330322266 9.499999046325684 4.099854469299316 M 9.499999046325684 2.099857330322266 C 10.18213176727295 2.099857330322266 10.86426448822021 2.441308975219727 11.24588966369629 3.124215126037598 L 17.33713912963867 14.02435493469238 C 18.08212852478027 15.35749435424805 17.11842918395996 16.9999942779541 15.59124946594238 16.9999942779541 L 3.408748626708984 16.9999942779541 C 1.881568908691406 16.9999942779541 0.9178695678710938 15.35749435424805 1.662858963012695 14.02435493469238 L 7.754109382629395 3.124215126037598 C 8.135733604431152 2.441308975219727 8.817866325378418 2.099857330322266 9.499999046325684 2.099857330322266 Z" stroke="none" fill="#a0161c"/>
  </g>
</svg>
