<svg id="Group_46" data-name="Group 46" xmlns="http://www.w3.org/2000/svg" xmlns:xlink="http://www.w3.org/1999/xlink" width="185.773" height="54.376" viewBox="0 0 185.773 54.376">
  <defs>
    <clipPath id="clip-path">
      <rect id="Rectangle_3" data-name="Rectangle 3" width="185.773" height="54.376" fill="none"/>
    </clipPath>
  </defs>
  <path id="Path_19" data-name="Path 19" d="M6.975.714.852,34.969H82.383L88.583.714Z" transform="translate(-0.192 -0.161)" fill="#a0161c"/>
  <g id="Group_10" data-name="Group 10">
    <g id="Group_9" data-name="Group 9" clip-path="url(#clip-path)">
      <path id="Path_20" data-name="Path 20" d="M88.583.714l-6.2,34.255H.852L6.975.714Z" transform="translate(-0.192 -0.161)" fill="none" stroke="#a0161c" stroke-width="1.427"/>
    </g>
  </g>
  <path id="Path_21" data-name="Path 21" d="M113.152.714l-6.2,34.255h96.023l6.2-34.255Z" transform="translate(-24.063 -0.161)" fill="#fff"/>
  <g id="Group_12" data-name="Group 12">
    <g id="Group_11" data-name="Group 11" clip-path="url(#clip-path)">
      <path id="Path_22" data-name="Path 22" d="M209.176.714l-6.123,34.255h-96.1l6.2-34.255Z" transform="translate(-24.063 -0.161)" fill="none" stroke="#a0161c" stroke-width="1.427"/>
      <path id="Path_23" data-name="Path 23" d="M28.145,9.314l-.7,20.925h-5.58l.388-3.72H20.24l-1.008,3.72h-5.58l6.51-20.925ZM22.875,22.8c.155-2.4.388-5.27.775-8.835-1.24,4.03-2.17,6.975-2.635,8.835Z" transform="translate(-3.072 -2.096)" fill="#fff"/>
      <path id="Path_24" data-name="Path 24" d="M60.055,9.314l-6.51,20.925H45.252l.62-20.925h5.735c-.388,5.735-.775,10.618-1.24,14.648,1.008-4.03,1.938-7.6,2.868-10.773L54.32,9.314Z" transform="translate(-10.181 -2.096)" fill="#fff"/>
      <path id="Path_25" data-name="Path 25" d="M75.445,9.314l-.7,20.925h-5.58l.388-3.72H67.54l-1.008,3.72h-5.58l6.51-20.925ZM70.175,22.8c.155-2.4.388-5.27.775-8.835-1.24,4.03-2.17,6.975-2.635,8.835Z" transform="translate(-13.714 -2.096)" fill="#fff"/>
      <path id="Path_26" data-name="Path 26" d="M97.94,9.314,94.22,30.239H89.415L88.33,20.706l-1.705,9.533H82.052l3.8-20.925h4.5l1.4,9.455,1.705-9.455Z" transform="translate(-18.461 -2.096)" fill="#fff"/>
      <path id="Path_27" data-name="Path 27" d="M125.2,9.414l-3.023,16.663h3.333l-.775,4.185h-8.68l3.72-20.848Z" transform="translate(-26.111 -2.118)" fill="#a0161c"/>
      <path id="Path_28" data-name="Path 28" d="M140.2,9.414l-3.72,20.848h-5.425l3.72-20.848Z" transform="translate(-29.486 -2.118)" fill="#a0161c"/>
      <path id="Path_29" data-name="Path 29" d="M146.65,9.414h9.068l-.775,4.108H151.3l-.7,3.953h3.41l-.775,4.03H149.9l-.853,4.573H153l-.775,4.185h-9.378Z" transform="translate(-32.141 -2.118)" fill="#a0161c"/>
      <path id="Path_30" data-name="Path 30" d="M179.612,9.414l-3.8,20.848h-4.728l2.558-14.105-4.418,14.105h-3.41l.543-13.8-2.48,13.8h-4.728l3.72-20.848h7.053c-.077,1.24-.077,2.713-.155,4.418l-.232,5.348,3.023-9.765Z" transform="translate(-35.808 -2.118)" fill="#a0161c"/>
      <path id="Path_31" data-name="Path 31" d="M189.372,9.414h5.5a16.7,16.7,0,0,1,3.333.31,2.814,2.814,0,0,1,1.628,1.008,3.685,3.685,0,0,1,.543,1.628,17.164,17.164,0,0,1-.31,2.868l-.31,1.783a8.754,8.754,0,0,1-.93,2.945,3.622,3.622,0,0,1-1.783,1.4,8.094,8.094,0,0,1-2.945.465h-1.473l-1.55,8.448h-5.425Zm4.805,3.565-.93,5.27h.388a1.533,1.533,0,0,0,1.085-.388,2.706,2.706,0,0,0,.542-1.55l.31-1.705a1.9,1.9,0,0,0-.077-1.4,2.275,2.275,0,0,0-1.318-.233" transform="translate(-41.77 -2.118)" fill="#a0161c"/>
      <path id="Path_32" data-name="Path 32" d="M208.45,9.414h4.03a24.666,24.666,0,0,1,5.27.388,2.989,2.989,0,0,1,1.86,1.163,3.09,3.09,0,0,1,.542,1.86,23.26,23.26,0,0,1-.542,3.953l-1.318,7.285a17.619,17.619,0,0,1-.93,3.8,3.786,3.786,0,0,1-1.163,1.473,4.165,4.165,0,0,1-1.783.775,14.01,14.01,0,0,1-2.945.233h-6.82Zm4.805,3.565L210.775,26.7a1.943,1.943,0,0,0,1.55-.465,7.549,7.549,0,0,0,.7-2.558l1.473-8.06a15.485,15.485,0,0,0,.232-1.783.7.7,0,0,0-.31-.62,1.839,1.839,0,0,0-1.163-.233" transform="translate(-46.045 -2.118)" fill="#a0161c"/>
      <path id="Path_33" data-name="Path 33" d="M21.877,58.875c0-3.49,2.376-5.987,5.265-5.987a2.984,2.984,0,0,1,2.678,1.595l-1.625,1.263a1.4,1.4,0,0,0-1.173-.782c-1.414,0-2.677,1.655-2.677,3.76,0,1.414.541,2.227,1.865,2.227a2.466,2.466,0,0,0,1.5-.692l.993,1.535A4.516,4.516,0,0,1,25.7,63.027C23.411,63.027,21.877,61.522,21.877,58.875Zm11.266-5.806H35.55l-1.955,9.777H31.187Zm7.909,6.409h-1l-.662,3.369H36.978l1.955-9.777h3.219c1.955,0,3.46.692,3.46,2.588A3.47,3.47,0,0,1,43.258,59.1l1.452,3.743H42.183Zm.259-1.9c1.293,0,1.925-.632,1.925-1.564,0-.722-.511-1.053-1.414-1.053h-.873l-.512,2.617Zm6.453,1.293c0-3.49,2.377-5.987,5.265-5.987a2.984,2.984,0,0,1,2.678,1.595l-1.624,1.263a1.4,1.4,0,0,0-1.173-.782c-1.414,0-2.678,1.655-2.678,3.76,0,1.414.542,2.227,1.865,2.227a2.468,2.468,0,0,0,1.5-.692l.993,1.535a4.52,4.52,0,0,1-3.009,1.233C49.3,63.027,47.763,61.522,47.763,58.875Zm10.905-5.806h2.406l-1.052,5.265a7.341,7.341,0,0,0-.12,1.113c0,.993.3,1.5,1.293,1.5.872,0,1.354-.662,1.685-2.347l1.113-5.536H66.34l-1.114,5.475c-.6,3.069-1.865,4.483-4.091,4.483-2.437,0-3.64-1.113-3.64-3.52a11.271,11.271,0,0,1,.211-1.655Zm11.025,0H72.1L70.536,60.83h3.55l-.391,2.016H67.738Zm10.484,0h2.888L84,62.846H81.471l-.064-2.226H78.721l-1.01,2.226H75.063Zm1.176,5.747-.033-1.143c-.03-.933-.06-1.806-.06-2.8H81.2c-.391.963-.722,1.865-1.143,2.8l-.518,1.143Zm6.63-5.747h2.406l-1.955,9.777H86.028Zm7.908,6.409h-1l-.662,3.369H91.819l1.956-9.777h3.219c1.955,0,3.46.692,3.46,2.588A3.47,3.47,0,0,1,98.1,59.1l1.452,3.743H97.024Zm.259-1.9c1.293,0,1.926-.632,1.926-1.564,0-.722-.511-1.053-1.414-1.053H95.79l-.511,2.617Zm9.777,3.565,1.715-1.354a2.681,2.681,0,0,0,2.045,1.189c.692,0,1.144-.316,1.144-.858,0-.436-.436-.632-1.114-1.052l-.842-.527a2.715,2.715,0,0,1-1.444-2.5,3.388,3.388,0,0,1,3.6-3.159,4.025,4.025,0,0,1,3.039,1.52l-1.5,1.414a2.332,2.332,0,0,0-1.625-.857c-.691,0-1.038.376-1.038.842,0,.406.422.587,1.2,1.083l.9.556a2.374,2.374,0,0,1,1.324,2.332c0,1.79-1.474,3.249-3.82,3.249A4.364,4.364,0,0,1,105.928,61.146Zm11.537-8.078h2.407l-1.565,7.762h3.55l-.391,2.016H115.51Zm6.3,5.806c0-3.64,2.467-5.987,5.055-5.987,2.256,0,3.791,1.5,3.791,4.152,0,3.64-2.467,5.987-5.055,5.987C125.3,63.027,123.767,61.522,123.767,58.875Zm6.378-1.685c0-1.414-.542-2.226-1.445-2.226-1.113,0-2.467,1.5-2.467,3.76,0,1.414.542,2.227,1.445,2.227C128.792,60.951,130.146,59.447,130.146,57.19Zm6.332-4.121H139.7c1.941,0,3.46.722,3.46,2.678,0,2.858-2.151,3.911-4.6,3.911h-.993l-.632,3.188h-2.406Zm2.361,4.693c1.234,0,1.941-.572,1.941-1.655,0-.782-.526-1.143-1.414-1.143h-.873l-.542,2.8Zm7.731-4.693h5.957l-.391,2.016h-3.58l-.331,1.715h3.039l-.391,2.016h-3.039l-.421,2.015h3.7l-.391,2.016h-6.107Zm9.19,0h2.316l1.354,4.633.481,2.2h.06a33.712,33.712,0,0,1,.391-3.7L161,53.069h2.286l-1.955,9.777h-2.317l-1.353-4.633-.452-2.2h-.06a31.943,31.943,0,0,1-.422,3.67l-.632,3.159H153.8Z" transform="translate(-4.922 -11.899)" fill="#414042"/>
    </g>
  </g>
</svg>
